# xmcd
#
# Track frame offsets: 
#        150
#        22083
#        47255
#        65423
#        80083
#        95048
#        107513
#        125075
#        138864
#        164555
#        181479
#        198305
#        219680
#        237706
#        258192
#        280758
#        294905
#        314292
#        328202
#
# Disc length: 4765 seconds
#
# Revision: 0
# Processed by: cddbd v1.5.2PL0 Copyright (c) Steve Scherf et al.
# Submitted via: ExactAudioCopy v1.3
#
DISCID=22129b13
DTITLE=Various Artist - Akella Presents - vol. 179 - Americana  CD2
DYEAR=2019
DGENRE=Blues
TTITLE0=Robert Nighthawk - Sputnik Monroe
TTITLE1=Mark Knopfler - My Bacon Roll
TTITLE2=The Steel Woods - Anna Lee
TTITLE3=John Hiatt - Hide Your Tears
TTITLE4=Big Al And The Heavyweights - Mother Trucker
TTITLE5=Adi Barar Band - Call Me the Breeze
TTITLE6=T.G. Copperfield - Black Horse
TTITLE7=Climax Blues Band - Simple Song
TTITLE8=The BigBlue - Atlanta Moan
TTITLE9=Too Slim and The Taildraggers - Lonesome Alone
TTITLE10=Big Gilson and The Wolf - What's Wrong Whit That
TTITLE11=Mighty Mike Schermer - Up All Night
TTITLE12=Ghost Riders - Missin' Dixie
TTITLE13=North Mississippi Allstars - Shining
TTITLE14=Ty Curtis - Out In The Country
TTITLE15=Bo Walton - Hookin' Up
TTITLE16=Nick Woodland - Military Kids
TTITLE17=Danny Shirley - Hard Livin'
TTITLE18=Big Daddy Wilson - Anna Mae
EXTD=
EXTT0=
EXTT1=
EXTT2=
EXTT3=
EXTT4=
EXTT5=
EXTT6=
EXTT7=
EXTT8=
EXTT9=
EXTT10=
EXTT11=
EXTT12=
EXTT13=
EXTT14=
EXTT15=
EXTT16=
EXTT17=
EXTT18=
PLAYORDER=
